<?xml version="1.0" standalone="no"?><!DOCTYPE svg PUBLIC "-//W3C//DTD SVG 1.1//EN" "http://www.w3.org/Graphics/SVG/1.1/DTD/svg11.dtd"><svg t="1727186356195" class="icon" viewBox="0 0 1152 1024" version="1.1" xmlns="http://www.w3.org/2000/svg" p-id="1855" xmlns:xlink="http://www.w3.org/1999/xlink" width="225" height="200"><path d="M640 384h34.2c44.2 76.6 127 128 221.8 128 22 0 43.6-2.8 64-8v456c0 35.4-28.6 64-64 64s-64-28.6-64-64V678.4L560 896h112c35.4 0 64 28.6 64 64s-28.6 64-64 64H384c-106 0-192-86-192-192V385c0-32.2-24-59.6-56-63.6l-15.8-2c-35-4.4-60-36.4-55.6-71.4S101 188 136 192.4l15.8 2c96 12 168.2 93.6 168.2 190.6v170.6c68.8-103.4 186.4-171.6 320-171.6z m320 53c-20 7-41.6 11-64 11-56.8 0-108-24.8-143.2-64-7.4-8.2-14-17-19.8-26.4C714.6 328 704 293.2 704 256V21.4C704 9.6 713.4 0.2 725.2 0h0.4c6.6 0 12.8 3.2 16.8 8.4v0.2l25.6 34 54.4 72.6L832 128h128l9.6-12.8L1024 42.6l25.6-34v-0.2c4-5.2 10.2-8.4 16.8-8.4h0.4c11.8 0.2 21.2 9.6 21.2 21.4V256c0 34.6-9.2 67.2-25.2 95.2-22.6 39.6-59.2 70.4-102.8 85.8zM864 256a32 32 0 1 0-64 0 32 32 0 1 0 64 0z m96 32a32 32 0 1 0 0-64 32 32 0 1 0 0 64z" p-id="1856"></path></svg>